<svg width="687" height="769" viewBox="0 0 687 769" fill="none" xmlns="http://www.w3.org/2000/svg">
<path d="M223.551 621.15C209.202 621.15 195.058 619.1 181.119 615C167.59 610.49 155.291 604.546 144.221 597.166C133.152 589.787 123.928 581.587 116.548 572.568C109.169 563.138 104.249 553.709 101.789 544.279L119.623 536.285L117.778 613.77H44.5977V159.929H120.238V365.941L106.709 359.791C108.759 349.952 113.268 340.727 120.238 332.118C127.617 323.098 136.637 315.104 147.296 308.134C157.956 300.755 169.64 295.015 182.349 290.915C195.058 286.406 207.972 284.151 221.092 284.151C250.2 284.151 275.823 291.325 297.962 305.675C320.51 320.024 338.139 339.907 350.848 365.326C363.968 390.744 370.527 419.647 370.527 452.035C370.527 484.833 364.173 513.941 351.463 539.36C338.754 564.778 321.125 584.867 298.577 599.626C276.438 613.975 251.43 621.15 223.551 621.15ZM207.562 554.734C224.781 554.734 240.155 550.429 253.685 541.82C267.214 532.8 277.873 520.706 285.663 505.537C293.452 489.958 297.347 472.124 297.347 452.035C297.347 432.357 293.452 414.933 285.663 399.764C278.283 384.595 267.829 372.705 254.3 364.096C240.77 355.486 225.191 351.182 207.562 351.182C189.934 351.182 174.355 355.486 160.825 364.096C147.296 372.705 136.637 384.595 128.847 399.764C121.058 414.933 117.163 432.357 117.163 452.035C117.163 472.124 121.058 489.958 128.847 505.537C136.637 520.706 147.296 532.8 160.825 541.82C174.355 550.429 189.934 554.734 207.562 554.734Z" fill="white" fill-opacity="0.85"/>
<rect x="224.021" y="164.283" width="462.978" height="44.8043" fill="white" fill-opacity="0.85"/>
<rect x="403.239" y="298.694" width="283.761" height="44.8043" fill="white" fill-opacity="0.85"/>
<rect x="433.109" y="433.109" width="253.891" height="44.8043" fill="white" fill-opacity="0.85"/>
<rect x="388.304" y="567.521" width="298.695" height="44.8043" fill="white" fill-opacity="0.85"/>
</svg>
